<?xml version="1.0" encoding="UTF-8"?>
<svg id="Layer_2" data-name="Layer 2" xmlns="http://www.w3.org/2000/svg" viewBox="0 0 50.05 14.58">
  <defs>
    <style>
      .cls-1 {
        fill: #fff;
      }
    </style>
  </defs>
  <g id="Layer_1-2" data-name="Layer 1">
    <path class="cls-1" d="M49.21,14.46c-1.61-2.44-3.26-4.59-5.71-6.25-9.76-6.62-22.94-5.14-33.02-.06-.12.06-1.78.95-1.68,1.02h4.25c1.11.04,4.55.3,5.22,1.2.9,1.2-1.86,1.4-2.57,1.45-2.98.24-6.02.02-9,.34-1.58-.03-3.66.78-5.14.78s-1.81-1.24-1.4-2.43c.5-1.42,3.83-6.2,4.91-7.43.34-.39.77-.73,1.12-1.11.39-.44,1.27-1.79,1.75-1.93.87-.25,1.19.65,1.01,1.35l-2.25,4.86C12.02,3.47,17.87,1.08,23.93.52c7.28-.67,16.07,1.26,21.74,6.04,1.9,1.6,4.16,4.27,4.37,6.86.05.57-.08,1.49-.83,1.04Z"/>
  </g>
</svg>