<?xml version="1.0" encoding="UTF-8"?>
<svg id="Layer_2" data-name="Layer 2" xmlns="http://www.w3.org/2000/svg" xmlns:xlink="http://www.w3.org/1999/xlink" viewBox="0 0 378.02 349.9">
  <defs>
    <style>
      .cls-1 {
        letter-spacing: 0em;
      }

      .cls-2 {
        font-family: CFHelvetica-ExtraBold, 'CF Helvetica-ExtraBold';
        font-size: 41.23px;
        font-weight: 700;
      }

      .cls-2, .cls-3, .cls-4 {
        fill: #fff;
      }

      .cls-5 {
        fill: url(#linear-gradient);
      }

      .cls-3 {
        font-family: Helvetica, Helvetica;
        font-size: 21.56px;
      }

      .cls-6 {
        letter-spacing: -.07em;
      }

      .cls-7 {
        letter-spacing: -.02em;
      }

      .cls-8 {
        letter-spacing: -.02em;
      }

      .cls-9 {
        letter-spacing: -.02em;
      }

      .cls-10 {
        fill: #f1effc;
      }
    </style>
    <linearGradient id="linear-gradient" x1="131.57" y1="216.52" x2="132.67" y2="-1.51" gradientTransform="translate(-13.49 11.11)" gradientUnits="userSpaceOnUse">
      <stop offset=".03" stop-color="#211a4a"/>
      <stop offset="1" stop-color="#425ba5"/>
    </linearGradient>
  </defs>
  <g id="Layer_1-2" data-name="Layer 1">
    <g>
      <rect class="cls-5" x="9.72" y="9.72" width="217.82" height="217.82" rx="42.46" ry="42.46" transform="translate(-17.35 20.36) rotate(-9.14)"/>
      <g>
        <path class="cls-10" d="M96.44,129.76c1.09,6.76,2.15,13.38,3.23,20.09-4.97,1.06-9.81,2.39-14.36,4.57-4.57,2.2-8.44,5.4-12.3,8.79-5.94-36.88-11.86-73.68-17.8-110.56.25-.06.49-.14.74-.18,19.64-3.15,39.28-6.38,58.94-9.42,8.82-1.36,17.54-.89,25.93,2.56,10.27,4.22,17.22,11.59,20.71,22.09,3.01,9.04,4.14,18.32,1.8,27.69-3.18,12.71-11.33,21.11-23.32,25.96-4.69,1.9-9.64,2.89-14.6,3.72-9.19,1.53-18.4,2.98-27.6,4.46-.41.07-.82.13-1.38.22ZM92.74,106.53c.34-.04.56-.05.79-.09,8.18-1.32,16.36-2.6,24.52-3.99,2.36-.4,4.71-.97,6.99-1.68,4.28-1.34,7.82-3.73,9.99-7.79,1.85-3.44,2.25-7.13,1.77-10.97-.7-5.54-2.95-10.15-7.88-13.12-4.01-2.42-8.47-2.76-12.94-2.11-9.48,1.38-18.93,2.97-28.39,4.48-.17.03-.34.12-.51.18l5.65,35.08Z"/>
        <path class="cls-10" d="M126.22,169.64c2.59.51,5.17,1.13,7.77,1.52,7.94,1.21,15.87,1.16,23.76-.44,3.35-.68,10.22-2.71,13.88-5.45-.88,1-1.73,2.02-2.64,2.99-3.8,4.03-8.28,6.99-13.62,8.64-8.07,2.5-16.22,2.78-24.51,1.33-6.4-1.12-12.8-2.31-19.26-3.03-16.57-1.85-30.49,3.87-42.28,15.36-4.09,3.99-7.46,8.57-10.93,13.07-.23.3-.47.59-.86,1.09.76-5.02,1.8-9.72,3.5-14.25,5.03-13.39,13.58-23.84,26.18-30.72,5.76-3.15,12.16-4.56,18.58-5.81,7.48-1.45,15.05-1.85,22.65-2.04,16.35-.42,31.34-4.85,44.08-15.49,7.96-6.65,13.66-14.92,16.97-24.78.69-2.07,1.22-4.19,1.9-6.56.17,2.15.44,4.08.47,6.02.22,13.12-4,24.79-11.96,35.09-7.23,9.36-16.4,16.08-27.78,19.71-8.31,2.66-16.78,3.78-25.48,3.38-.13,0-.27.05-.4.08-.01.1-.03.2-.04.3Z"/>
      </g>
      <g>
        <g>
          <path class="cls-4" d="M248.73,200.19s10.69-4.5,20.12,6.96c0,0-10.35,1.67-12.4,9.46,0,0,8.87-7.08,16.51-7.51s11.85,4.17,12.63,4.09,13.96-6.23,15.27-5.73,5.07,5.3,5.72,5.55-3.92-6.36-3.47-11.41,2.41-12.15,2.16-16.36-1.76-5.16-3.04-3.78-7.33-.85-7.05-3.78c.28-2.92-.61,3.22-1.64,3.06-3.18-.47-3.2-2.38-3.02-2.85.15-.38-.57,1.48-1.11,2.9-.18.48-.72.72-1.2.53l-2.72-1.04s-1.3-.5-.68-2.13,4.06-9.47,5.03-10.13,9.74.84,15.63,4.96c5.89,4.12,4.59,3.62,5.44,4.32s3.97,10.11,5.3,12.49,7.28,10.26,5.48,15.92-6.97,10.4-6.07,10,4.5-2.01,4.88-2.99.81,6.66-.59,8.37-5.13,3.64-8.68,4.14-3.96-.4-4.66.46-3.55,5.36-9.93,7.4l7.25,36.03-23.28-8.92-6.4-24.12s-15.16-4.31-13.33-3.24,11.1,6.12,11.1,6.12c0,0-.82,6.04-5.34,15.88l-5.22-2"/>
          <path class="cls-4" d="M289.92,182.35l6.01-1.06s.03,1.88-1.57,3.13-3.83-.72-4.44-2.07Z"/>
          <path class="cls-4" d="M287.86,209.37s7.91-4.06,10.87-4.37c0,0-5.49-1.07-10.87,4.37Z"/>
          <path class="cls-4" d="M303.73,191.35s-3.3,9.93-3.3,12.14c0,0-3.64-7.83,3.3-12.14Z"/>
        </g>
        <path class="cls-4" d="M229.86,240.78l-8.65-40.64c-.48-2.24-2.91-3.47-5-2.52l-6.26,2.84c-1.66.76-2.96,2.13-3.61,3.84l-9.18,23.96-22.48-8.61,32.96-86.06,22.48,8.61-8.22,21.45-2.42,6.33-2.28,5.94c2.85-1.77,5.08-3.14,6.69-4.11,1.6-.96,3.33-1.93,5.19-2.9l29.73-15.73,27.78,10.64-44.83,21.5,15.88,66.09-27.78-10.64Z"/>
        <path class="cls-4" d="M309.88,265.21l30.88-80.64,22.48,8.61-25.54,66.68,40.32,15.44-7.42,19.38-57.38-21.98c-2.99-1.15-4.49-4.5-3.34-7.5Z"/>
        <text class="cls-2" transform="translate(160.64 250.47) rotate(20.96)"><tspan x="0" y="0">C</tspan><tspan class="cls-7" x="29.28" y="0">OA</tspan><tspan class="cls-1" x="85.52" y="0">CHING</tspan></text>
        <text class="cls-3" transform="translate(176.3 283.09) rotate(20.96)"><tspan x="0" y="0">GE</tspan><tspan class="cls-8" x="31.16" y="0">T</tspan><tspan x="43.95" y="0" xml:space="preserve"> FI</tspan><tspan class="cls-9" x="69.1" y="0">T T</tspan><tspan x="100.3" y="0">OD</tspan><tspan class="cls-6" x="132.65" y="0">A</tspan><tspan class="cls-8" x="145.44" y="0">Y</tspan></text>
      </g>
    </g>
  </g>
</svg>