<?xml version="1.0" encoding="UTF-8"?>
<svg id="Layer_2" data-name="Layer 2" xmlns="http://www.w3.org/2000/svg" viewBox="0 0 265.6 222.54">
  <defs>
    <style>
      .cls-1 {
        fill: #fff;
      }
    </style>
  </defs>
  <g id="Layer_1-2" data-name="Layer 1">
    <path class="cls-1" d="M55.42,88.8L160.18,0l103.85,89.05-75.54,65.04c-14.23-14.38-33.57-17.54-50.63-5.65-1.6,1.12-5.66,5.49-7.3,5.07L55.42,88.8ZM180.9,98.98v-28.74l-.78-.78h-10.2v4.7s-6.65-4.06-6.65-4.06c-20.13-6.62-32.65,18.37-20.52,33.57,6.7,8.4,22.11,9.74,27.71-.24l1.07.32c2.94,8.84,16.19,8.1,21.68,2.31,6.34-6.69,6.79-19.32,4.79-27.82-8.56-36.37-69.51-35.35-76.55,2.61-6.43,34.71,26.3,54.66,56.79,42.38l-2.38-7.23c-23.34,9.16-48.35-2.9-46.22-30.1,2.55-32.69,51.53-35.29,60-7.67,1.64,5.36,3.37,26.15-6.81,23-.64-.2-1.81-1.7-1.93-2.25Z"/>
    <path class="cls-1" d="M59.08,222.54l81.08-69.71c12.69-9.3,28.91-8.76,40.99,1.28l79.75,68.43H59.08Z"/>
    <polygon class="cls-1" points="265.6 95.06 265.6 219.93 192.4 156.98 265.6 95.06"/>
    <polygon class="cls-1" points="54.38 219.41 54.38 95.06 127.01 157.04 54.38 219.41"/>
    <polygon class="cls-1" points="0 200.6 0 75.72 48.87 117.53 48.88 158.79 0 200.6"/>
    <polygon class="cls-1" points="66.92 72.59 49.84 87.38 49.15 88.53 49.15 110.73 4.18 72.59 66.92 72.59"/>
    <polygon class="cls-1" points="49.15 203.73 4.71 203.73 49.15 165.59 49.15 203.73"/>
    <path class="cls-1" d="M158.3,78.47c15.13-1.79,16.82,24.55-1.2,22.35-9.88-1.21-11.54-20.84,1.2-22.35Z"/>
  </g>
</svg>